<?xml version="1.0" standalone="no"?>
<!DOCTYPE svg PUBLIC "-//W3C//DTD SVG 20010904//EN"
 "http://www.w3.org/TR/2001/REC-SVG-20010904/DTD/svg10.dtd">
<svg version="1.0" xmlns="http://www.w3.org/2000/svg"
 width="130" height="50" viewBox="0 0 2206.000000 737.000000"
 preserveAspectRatio="xMidYMid meet">

<g transform="translate(0.000000,737.000000) scale(0.100000,-0.100000)"
fill="#000000" stroke="none">
<path d="M1120 4505 l0 -2135 609 0 610 0 4 878 c4 939 3 925 55 1074 66 188
219 278 452 265 208 -11 305 -92 372 -309 l22 -73 4 -917 c3 -905 3 -918 22
-918 11 0 20 -2 20 -4 0 -2 -160 -257 -355 -567 l-355 -564 147 -3 c109 -2
150 1 159 10 6 7 166 258 354 558 188 300 348 551 355 558 8 9 31 12 68 10
l56 -3 -355 -562 c-195 -309 -354 -565 -354 -568 0 -3 67 -5 149 -5 l149 0
358 570 359 570 48 0 c26 0 47 -3 47 -6 0 -5 -626 -1002 -695 -1108 l-17 -26
153 0 154 1 358 569 c316 501 362 570 383 570 l25 0 -3 1060 c-2 583 -2 1057
0 1053 2 -5 173 -480 380 -1058 l378 -1050 -357 -3 -357 -2 -263 -403 c-145
-221 -314 -480 -376 -575 l-114 -173 893 4 c957 5 996 7 1132 57 177 67 386
273 496 490 57 113 184 404 256 587 36 89 278 786 539 1548 261 763 476 1390
477 1393 2 4 5 -910 8 -2030 l5 -2038 610 349 610 348 5 369 5 369 45 -54
c108 -128 314 -257 485 -303 108 -29 394 -32 530 -5 457 90 783 333 979 729
90 183 151 394 175 608 5 44 9 -435 10 -1172 0 -687 4 -1248 9 -1248 4 0 279
142 612 314 l605 314 3 410 2 411 93 -93 c143 -144 284 -225 475 -274 104 -26
392 -23 532 7 273 58 487 165 670 338 203 190 356 482 426 808 l17 80 19 -84
c66 -300 225 -567 447 -753 256 -213 543 -338 911 -395 143 -22 537 -25 675
-5 701 101 1154 447 1351 1032 l29 85 3 -522 2 -523 609 0 609 0 5 873 c4 839
5 875 25 965 25 111 67 205 115 259 78 85 208 128 367 120 171 -8 262 -62 325
-190 73 -151 69 -89 73 -1109 l3 -918 615 0 615 0 -4 1072 c-3 1044 -4 1076
-25 1183 -99 515 -377 816 -842 910 -104 22 -402 31 -513 16 -185 -25 -348
-90 -500 -199 -92 -66 -230 -199 -302 -291 l-50 -64 -3 237 -2 236 -560 0
-560 0 -2 -507 -3 -508 -29 80 c-75 212 -184 383 -346 546 -325 326 -750 479
-1331 479 -443 0 -793 -95 -1097 -296 -110 -74 -312 -273 -381 -377 -101 -151
-177 -327 -220 -507 -11 -45 -22 -84 -24 -87 -2 -2 -7 20 -11 49 -11 82 -54
244 -90 338 -222 573 -658 880 -1248 880 -142 0 -266 -18 -383 -56 -187 -61
-371 -173 -464 -284 -25 -29 -66 -89 -93 -133 l-48 -80 0 231 0 232 -555 0
-555 0 -1 -657 c-1 -431 -5 -634 -10 -588 -67 528 -308 944 -673 1160 -195
115 -374 164 -631 172 -194 6 -298 -7 -447 -57 -253 -85 -435 -222 -546 -413
l-47 -81 -3 231 -2 232 -553 3 c-303 2 -806 1 -1116 -2 l-564 -5 -263 -785
c-197 -592 -264 -780 -270 -765 -5 11 -128 364 -275 785 l-265 765 -617 3
c-339 1 -617 -1 -617 -6 0 -4 23 -70 50 -146 28 -76 50 -139 50 -140 0 -1 -42
40 -92 90 -142 139 -293 217 -513 265 -120 27 -400 37 -527 19 -250 -33 -455
-145 -656 -355 -50 -52 -94 -95 -97 -95 -3 0 -5 347 -5 770 l0 770 -610 0
-610 0 0 -2135z m15231 206 c268 -84 418 -441 381 -909 -32 -403 -171 -628
-420 -681 -166 -35 -324 12 -435 128 -64 68 -99 125 -131 217 -45 127 -57 210
-63 411 -6 212 6 318 54 463 68 203 187 331 353 376 70 20 189 17 261 -5z
m-6903 -91 c169 -59 287 -213 334 -437 23 -115 28 -340 9 -443 -44 -239 -168
-419 -331 -481 -246 -94 -477 -2 -594 235 -72 146 -107 371 -87 561 14 138 33
212 81 310 66 136 154 219 279 263 56 19 79 22 156 18 54 -3 115 -13 153 -26z
m3411 15 c139 -33 268 -138 330 -268 59 -123 75 -219 75 -432 0 -216 -14 -289
-81 -425 -44 -91 -152 -204 -228 -239 -83 -39 -188 -56 -270 -44 -205 29 -343
174 -413 432 -23 87 -25 113 -25 286 0 216 13 287 80 424 42 87 151 204 218
236 98 46 202 56 314 30z" fill="rgb(255,255,255)"/>
</g>
</svg>
